<?xml version="1.0" encoding="UTF-8"?>
<svg xmlns="http://www.w3.org/2000/svg" onmouseup="{ if(window.parent.document.onmouseup) window.parent.document.onmouseup(arguments[0]);}" style="fill-rule:evenodd;clip-rule:evenodd;stroke-linecap:round;stroke-linejoin:round;stroke-miterlimit:1.5;" xml:space="preserve" version="1.1" viewBox="0 0 960 960" height="100%" width="100%" xmlns:serif="http://www.serif.com/" xmlns:xlink="http://www.w3.org/1999/xlink"><g transform="matrix(1.33333,0,0,1.33333,0,0)"><path data-cppathid="10000" style="fill:none;stroke:white;stroke-width:23px;" d="M18.403,157.653L704.976,157.653L704.976,213.638L654.519,213.638L654.519,522.087L704.976,522.087L704.976,566.559L18.403,566.559L18.403,522.087L68.665,522.087L68.665,213.638L18.403,213.638L18.403,157.653Z"/><path data-cppathid="10001" style="fill:none;stroke:white;stroke-width:23px;" d="M66.741,213.638L655.785,213.638"/><path data-cppathid="10002" style="fill:none;stroke:white;stroke-width:23px;" d="M218.497,158.014L218.497,127.163L504.524,127.163L504.524,158.014"/><path data-cppathid="10003" style="fill:none;stroke:white;stroke-width:23px;" d="M159.76,135.509L159.76,95.226L99.344,95.226L99.344,135.502M84.041,157.205L84.041,135.566L170.194,135.502L170.194,157.649"/><g transform="matrix(1,0,0,1,476.67,1.07639)"><path data-cppathid="10004" style="fill:none;stroke:white;stroke-width:23px;" d="M99.344,135.502L99.344,95.226L159.76,95.226L159.76,135.509M84.041,156.128L84.041,135.566L170.194,135.502L170.194,156.128"/></g><path data-cppathid="10005" style="fill:none;stroke:white;stroke-width:23px;" d="M702.955,522.087L38.483,522.087L702.955,522.087Z"/></g></svg>