<?xml version="1.0" encoding="UTF-8"?>
<svg xmlns="http://www.w3.org/2000/svg" onmouseup="{ if(window.parent.document.onmouseup) window.parent.document.onmouseup(arguments[0]);}" style="fill-rule:evenodd;clip-rule:evenodd;stroke-linecap:round;stroke-linejoin:round;stroke-miterlimit:1.5;" xml:space="preserve" version="1.1" viewBox="0 0 960 960" height="100%" width="100%" xmlns:serif="http://www.serif.com/" xmlns:xlink="http://www.w3.org/1999/xlink"><g transform="matrix(1.33333,0,0,1.33333,0,0)"><g transform="matrix(1.52875,0,0,1.52875,-197.73,-183.91)"><path data-cppathid="10000" style="fill:none;stroke:white;stroke-width:15.04px;" d="M452.905,266.916L452.905,308.029"/><path data-cppathid="10001" style="fill:none;stroke:white;stroke-width:15.04px;" d="M314.814,297.19L314.814,399.382"/><path data-cppathid="10002" style="fill:none;stroke:white;stroke-width:15.04px;" d="M447.919,357.487C467.785,371.315 482.322,402.416 482.322,398.797"/><path data-cppathid="10003" style="fill:none;stroke:white;stroke-width:15.04px;" d="M509.391,491.833C537.584,490.976 550.288,488.56 552.435,488.208C581.765,483.398 568.903,439.651 568.875,439.624C544.483,416.821 524.007,405.337 503.227,401.677C499.339,400.992 203.595,403.132 181.424,403.326C153.211,403.573 159.359,467.7 161.808,471.329C168.994,481.977 180.254,487.038 181.424,488.208C183.009,489.792 190.834,490.976 203.198,491.833M307.165,492.56C340.784,492.498 370.156,493.215 405.268,492.56"/><g transform="matrix(0.983927,0,0,0.960133,0.499422,15.3225)"><ellipse data-cppathid="10004" style="fill:none;stroke:white;stroke-width:15.48px;" ry="27.6" rx="26.933" cy="514.095" cx="255.634"/></g><g transform="matrix(1.9065,0,0,1.8604,-235.555,-446.178)"><ellipse data-cppathid="10005" style="fill:none;stroke:white;stroke-width:7.99px;" ry="27.6" rx="26.933" cy="514.095" cx="255.634"/></g><g transform="matrix(1.9065,0,0,1.8604,-31.7884,-449.176)"><ellipse data-cppathid="10006" style="fill:none;stroke:white;stroke-width:7.99px;" ry="27.6" rx="26.933" cy="514.095" cx="255.634"/></g><rect data-cppathid="10007" style="fill:none;stroke:white;stroke-width:15.04px;" height="113.299" width="150.872" y="223.737" x="378.699"/><g transform="matrix(1,0,0,0.928957,-22.1395,0.351836)"><path data-cppathid="10008" style="fill:none;stroke:white;stroke-width:15.59px;" d="M440.995,202.821C440.995,180.209 456.583,161.851 475.784,161.851C494.984,161.851 510.572,180.209 510.572,202.821"/></g><g transform="matrix(0.983927,0,0,0.960133,205.18,13.5415)"><ellipse data-cppathid="10009" style="fill:none;stroke:white;stroke-width:15.48px;" ry="27.6" rx="26.933" cy="514.095" cx="255.634"/></g><path data-cppathid="10010" style="fill:none;stroke:white;stroke-width:15.04px;" d="M191.117,399.096C199.209,390.869 245.305,297.287 245.305,297.287L348.668,297.287"/><g transform="matrix(1,0,0,1,-0.924413,-1.18853)"><ellipse data-cppathid="10011" style="fill:none;stroke:white;stroke-width:15.04px;" ry="4.711" rx="4.497" cy="267.419" cx="454.222"/></g><g transform="matrix(0.932437,0,0,1,32.7831,0)"><path data-cppathid="10012" style="fill:none;stroke:white;stroke-width:15.56px;" d="M488.809,214.349L488.809,188.583M414.052,188.583L414.052,214.349"/></g></g></g></svg>